# File created by Blade
# Date/Time:  Tue Apr 07 21:25:57 2015
# Frame Rate: 120.000 fps
#------------------------------------------------------
:FULLY-SPECIFIED
:DEGREES
358
root 21.503417 32.546963 4.000679 31.200895 -82.676964 -6.879950
Spine -1.581731 -5.558077 2.499928
Head 0.906305 -2.589267 3.952671
LeftShoulder 0.971457 31.296252 22.397613
LeftArm 79.371839 18.204409 -60.454650
LeftForeArm -3.676957 -0.000000 20.324412
LeftHand 7.031038 0.000000 -4.582638
LeftHandThumb1 -26.253704 0.000000 33.147579
RightShoulder 6.706276 8.418486 -21.361739
RightArm 38.733593 -28.813108 77.229867
RightForeArm -2.912193 -0.000000 20.072153
RightHand 5.845638 -0.000000 7.544958
RightHandThumb1 -24.326973 -0.000000 -32.862282
LeftUpLeg -40.721444 -8.131584 5.948837
LeftLeg 23.702343 -0.000000 -0.000000
LeftFoot -6.162639 9.755949 -14.354789
LeftToeBase -12.702146 -0.000000 0.000000
RightUpLeg -32.481115 1.678142 1.128765
RightLeg 6.887665 -0.000000 -0.000000
RightFoot -3.915987 -7.501338 13.803420
RightToeBase -2.424910 -0.000000 0.000000
359
root 21.481346 32.546735 4.060350 31.032475 -82.902680 -6.808934
Spine -1.565902 -5.581967 2.374027
Head 1.021044 -2.444104 3.937359
LeftShoulder 1.021190 31.249903 22.499866
LeftArm 79.469118 18.173225 -60.446128
LeftForeArm -3.756537 -0.000000 20.123938
LeftHand 7.092004 -0.000000 -4.923745
LeftHandThumb1 -26.253704 0.000000 33.147579
RightShoulder 6.705822 8.423669 -21.364409
RightArm 38.938908 -28.875462 77.208077
RightForeArm -3.251555 -0.000000 20.099674
RightHand 5.760206 -0.000000 7.642082
RightHandThumb1 -24.326973 -0.000000 -32.862282
LeftUpLeg -40.230933 -7.777642 5.558943
LeftLeg 23.006699 -0.000000 -0.000000
LeftFoot -6.254772 9.908910 -14.886920
LeftToeBase -12.097864 -0.000000 0.000000
RightUpLeg -32.680258 1.940942 0.946426
RightLeg 7.541193 -0.000000 -0.000000
RightFoot -4.004352 -7.930371 13.037433
RightToeBase -2.876651 -0.000000 0.000000
360
root 21.461047 32.546200 4.120382 30.860550 -83.165318 -6.725497
Spine -1.556878 -5.596939 2.208416
Head 1.133171 -2.252133 3.953279
LeftShoulder 1.046237 31.221995 22.630976
LeftArm 79.604299 18.129545 -60.322034
LeftForeArm -3.902906 -0.000000 20.008823
LeftHand 6.999485 -0.000000 -5.247606
LeftHandThumb1 -26.253704 0.000000 33.147579
RightShoulder 6.741996 8.483262 -21.349723
RightArm 39.099707 -28.962403 77.155988
RightForeArm -3.392974 -0.000000 20.131127
RightHand 5.810232 -0.000000 7.881159
RightHandThumb1 -24.326973 -0.000000 -32.862282
LeftUpLeg -39.683778 -7.400241 5.155027
LeftLeg 22.166884 -0.000000 -0.000000
LeftFoot -6.240697 9.972940 -15.005451
LeftToeBase -11.542288 -0.000000 0.000000
RightUpLeg -32.922538 2.328753 0.699750
RightLeg 8.254060 -0.000000 -0.000000
RightFoot -4.178777 -8.482163 12.339963
RightToeBase -3.178478 -0.000000 0.000000
361
root 21.440187 32.544372 4.183848 30.722944 -83.415123 -6.691426
Spine -1.532108 -5.606916 2.070938
Head 1.249371 -2.117048 3.944604
LeftShoulder 1.067720 31.240964 22.727811
LeftArm 79.812730 18.049025 -60.140493
LeftForeArm -4.074852 -0.000000 19.898071
LeftHand 6.932592 -0.000000 -5.499011
LeftHandThumb1 -26.253704 0.000000 33.147579
RightShoulder 6.763899 8.495851 -21.349696
RightArm 39.312154 -29.026285 77.093760
RightForeArm -3.748031 -0.000000 20.159502
RightHand 5.828146 -0.000000 7.995584
RightHandThumb1 -24.326973 -0.000000 -32.862282
LeftUpLeg -39.078984 -7.048402 4.769240
LeftLeg 21.281627 -0.000000 -0.000000
LeftFoot -6.227622 9.957613 -14.948630
LeftToeBase -11.179690 -0.000000 0.000000
RightUpLeg -33.190980 2.667702 0.488182
RightLeg 9.045681 -0.000000 -0.000000
RightFoot -4.333325 -8.994211 11.604746
RightToeBase -3.407233 -0.000000 0.000000
362
root 21.417157 32.541070 4.248557 30.568861 -83.699923 -6.654095
Spine -1.505260 -5.591442 1.902924
Head 1.406255 -1.933101 3.960924
LeftShoulder 1.129473 31.223149 22.888656
LeftArm 79.941241 17.964806 -60.161872
LeftForeArm -4.038820 -0.000000 19.768419
LeftHand 6.903188 -0.000000 -5.935094
LeftHandThumb1 -26.253704 0.000000 33.147579
RightShoulder 6.808074 8.541024 -21.333427
RightArm 39.461337 -29.096483 77.036472
RightForeArm -4.177701 -0.000000 20.229293
RightHand 5.890805 0.000000 8.200721
RightHandThumb1 -24.326973 -0.000000 -32.862282
LeftUpLeg -38.414516 -6.648648 4.363487
LeftLeg 20.409842 -0.000000 -0.000000
LeftFoot -6.354386 9.883448 -14.995986
LeftToeBase -10.477886 -0.000000 0.000000
RightUpLeg -33.488602 3.028493 0.271617
RightLeg 9.937465 -0.000000 -0.000000
RightFoot -4.512827 -9.515882 10.831391
RightToeBase -3.698212 -0.000000 0.000000
363
root 21.395253 32.534758 4.314501 30.367973 -84.017068 -6.561930
Spine -1.492309 -5.558721 1.704212
Head 1.580788 -1.786754 4.000338
LeftShoulder 1.192790 31.117593 23.071236
LeftArm 80.016897 17.907970 -60.132757
LeftForeArm -4.008877 -0.000000 19.673131
LeftHand 6.789681 -0.000000 -6.234428
LeftHandThumb1 -26.253704 0.000000 33.147579
RightShoulder 6.850282 8.557862 -21.311449
RightArm 39.671719 -29.155168 76.946104
RightForeArm -4.627532 0.000000 20.295555
RightHand 5.881167 -0.000000 8.461156
RightHandThumb1 -24.326973 -0.000000 -32.862282
LeftUpLeg -37.736428 -6.253482 3.973765
LeftLeg 19.554552 -0.000000 -0.000000
LeftFoot -6.499891 9.748547 -15.021259
LeftToeBase -10.054618 -0.000000 0.000000
RightUpLeg -33.856782 3.410013 0.044027
RightLeg 10.948855 -0.000000 -0.000000
RightFoot -4.741148 -10.060283 10.059802
RightToeBase -4.033512 -0.000000 0.000000
364
root 21.369843 32.526056 4.380023 30.545728 -84.336155 -6.883379
Spine -1.441780 -5.526210 1.548672
Head 1.726886 -1.602790 4.016436
LeftShoulder 1.188536 31.135984 23.190130
LeftArm 80.218351 17.790720 -60.039173
LeftForeArm -3.967211 0.000000 19.607250
LeftHand 6.767137 -0.000000 -6.607186
LeftHandThumb1 -26.253704 0.000000 33.147579
RightShoulder 6.908963 8.620992 -21.284570
RightArm 39.879261 -29.267125 76.814989
RightForeArm -5.052413 -0.000000 20.372590
RightHand 5.822857 -0.000000 8.605152
RightHandThumb1 -24.326973 -0.000000 -32.862282
LeftUpLeg -37.005977 -5.865690 3.649432
LeftLeg 18.684706 -0.000000 -0.000000
LeftFoot -6.615689 9.561821 -14.844866
LeftToeBase -9.900928 -0.000000 0.000000
RightUpLeg -34.204563 3.878054 -0.186902
RightLeg 11.992327 -0.000000 -0.000000
RightFoot -5.041047 -10.599813 9.528137
RightToeBase -4.101669 -0.000000 0.000000
365
root 21.335650 32.513663 4.437989 31.120782 -84.705561 -7.625238
Spine -1.405319 -5.411560 1.352605
Head 1.951129 -1.448053 4.116385
LeftShoulder 1.266957 31.137842 23.397653
LeftArm 80.360551 17.662919 -59.936671
LeftForeArm -3.911096 0.000000 19.597273
LeftHand 6.694456 -0.000000 -6.861022
LeftHandThumb1 -26.253704 0.000000 33.147579
RightShoulder 6.954440 8.639218 -21.205745
RightArm 40.114961 -29.383011 76.644334
RightForeArm -5.448739 -0.000000 20.442661
RightHand 5.790589 -0.000000 8.886747
RightHandThumb1 -24.326973 -0.000000 -32.862282
LeftUpLeg -36.241919 -5.513925 3.403199
LeftLeg 17.828701 -0.000000 -0.000000
LeftFoot -6.812016 9.430118 -14.769699
LeftToeBase -9.679988 -0.000000 0.000000
RightUpLeg -34.567726 4.426077 -0.407773
RightLeg 13.129543 -0.000000 -0.000000
RightFoot -5.380352 -11.118377 9.062325
RightToeBase -4.274679 -0.000000 0.000000
366
root 21.316905 32.499975 4.506593 30.732164 -85.037305 -7.347647
Spine -1.387593 -5.395941 1.120158
Head 2.128520 -1.268917 4.168072
LeftShoulder 1.300598 31.105973 23.571733
LeftArm 80.528794 17.509867 -59.928518
LeftForeArm -3.821790 -0.000000 19.529059
LeftHand 6.605921 -0.000000 -7.212314
LeftHandThumb1 -26.253704 0.000000 33.147579
RightShoulder 7.013361 8.684955 -21.172926
RightArm 40.416493 -29.516803 76.403621
RightForeArm -5.828766 0.000000 20.502695
RightHand 5.759460 -0.000000 9.053638
RightHandThumb1 -24.326973 -0.000000 -32.862282
LeftUpLeg -35.597154 -5.428902 3.171475
LeftLeg 16.984556 -0.000000 -0.000000
LeftFoot -6.927364 9.532151 -14.631309
LeftToeBase -9.590779 -0.000000 0.000000
RightUpLeg -35.144732 4.748736 -0.644386
RightLeg 14.558198 -0.000000 -0.000000
RightFoot -5.771676 -11.471529 8.660300
RightToeBase -4.449282 -0.000000 0.000000
367
root 21.306648 32.486145 4.572032 30.766063 -85.311368 -7.441969
Spine -1.394717 -5.419105 0.962780
Head 2.239067 -1.078748 4.213990
LeftShoulder 1.330164 31.055922 23.734030
LeftArm 80.690294 17.319734 -59.909477
LeftForeArm -3.723095 -0.000000 19.518832
LeftHand 6.623116 -0.000000 -7.556639
LeftHandThumb1 -26.253704 0.000000 33.147579
RightShoulder 7.063657 8.813613 -21.161059
RightArm 40.695015 -29.666348 76.180407
RightForeArm -6.130224 -0.000000 20.547126
RightHand 5.709787 -0.000000 9.332854
RightHandThumb1 -24.326973 -0.000000 -32.862282
LeftUpLeg -35.097618 -5.349467 2.980459
LeftLeg 16.243541 -0.000000 -0.000000
LeftFoot -6.972557 9.687494 -14.386719
LeftToeBase -9.571830 -0.000000 0.000000
RightUpLeg -35.801592 5.077735 -0.857891
RightLeg 16.007230 -0.000000 -0.000000
RightFoot -6.064497 -11.815077 8.319297
RightToeBase -4.827473 -0.000000 0.000000
368
root 21.303628 32.471573 4.636198 30.240804 -85.598238 -6.927260
Spine -1.432231 -5.451453 0.738488
Head 2.306205 -0.870164 4.295142
LeftShoulder 1.375297 30.959542 23.943123
LeftArm 80.819130 17.119845 -59.930947
LeftForeArm -3.671888 -0.000000 19.520829
LeftHand 6.577730 -0.000000 -7.927898
LeftHandThumb1 -26.253704 0.000000 33.147579
RightShoulder 7.091927 8.945848 -21.138273
RightArm 41.000713 -29.810342 75.938711
RightForeArm -6.288393 -0.000000 20.634007
RightHand 5.549946 -0.000000 9.620629
RightHandThumb1 -24.326973 -0.000000 -32.862282
LeftUpLeg -34.726765 -5.288356 2.734322
LeftLeg 15.599835 -0.000000 -0.000000
LeftFoot -6.997918 9.951491 -14.153596
LeftToeBase -9.552044 -0.000000 0.000000
RightUpLeg -36.560315 5.435152 -1.152262
RightLeg 17.522336 -0.000000 -0.000000
RightFoot -6.371905 -12.159981 8.139857
RightToeBase -5.249981 -0.000000 0.000000
369
root 21.310935 32.458737 4.696773 28.842337 -85.952453 -5.496836
Spine -1.466474 -5.456633 0.385010
Head 2.304700 -0.730484 4.434806
LeftShoulder 1.386062 30.824393 24.139685
LeftArm 80.934559 16.880912 -59.914975
LeftForeArm -3.669448 -0.000000 19.563726
LeftHand 6.514974 -0.000000 -8.206911
LeftHandThumb1 -26.253704 0.000000 33.147579
RightShoulder 7.123755 9.096977 -21.072018
RightArm 41.329492 -29.936035 75.678135
RightForeArm -6.556490 0.000000 20.727036
RightHand 5.477232 -0.000000 9.766803
RightHandThumb1 -24.326973 -0.000000 -32.862282
LeftUpLeg -34.406546 -5.296118 2.463784
LeftLeg 14.908199 -0.000000 -0.000000
LeftFoot -6.942108 10.351693 -14.006501
LeftToeBase -9.537782 -0.000000 0.000000
RightUpLeg -37.418208 5.850972 -1.557045
RightLeg 19.083074 -0.000000 -0.000000
RightFoot -6.673180 -12.464459 8.049545
RightToeBase -5.515914 -0.000000 0.000000
370
root 21.322167 32.446723 4.757155 26.394402 -86.250814 -2.996808
Spine -1.503353 -5.501480 -0.002949
Head 2.264606 -0.570048 4.604691
LeftShoulder 1.430761 30.746371 24.346703
LeftArm 81.139861 16.561484 -59.888565
LeftForeArm -3.704318 -0.000000 19.583114
LeftHand 6.429136 -0.000000 -8.616855
LeftHandThumb1 -26.253704 0.000000 33.147579
RightShoulder 7.138160 9.273397 -20.987753
RightArm 41.617521 -30.003328 75.454757
RightForeArm -6.879020 -0.000000 20.853901
RightHand 5.413481 -0.000000 9.979354
RightHandThumb1 -24.326973 -0.000000 -32.862282
LeftUpLeg -34.157712 -5.429393 2.211661
LeftLeg 14.276141 -0.000000 -0.000000
LeftFoot -6.877885 10.778843 -13.949564
LeftToeBase -9.398298 -0.000000 0.000000
RightUpLeg -38.297484 6.155073 -1.976704
RightLeg 20.635472 -0.000000 -0.000000
RightFoot -6.947480 -12.670155 8.044550
RightToeBase -5.717624 -0.000000 0.000000
